:SAMPLES-PER-SECOND 30
:FULLY-SPECIFIED
:DEGREES
558
root  -62.608 40.8161 -28.8857 7.25128 17.4333 3.76868
RightUpLeg  -19.2016 -23.4185 -3.01575
RightLeg  17.248 -10.8113 0.889627
RightFoot  -2.50506 0.362905 -4.96013
RightToes  0.00048216 0.542163 -0.142577
Spine  31.0257 -1.78207 18.1342
Spine1  18.1948 5.16777 -4.96483
HEad  -14.5091 -6.63063 -6.8489
LeftShoulder1  9.35843 -15.1324 -43.6991
LeftArm  -3.59838 9.46934 -30.6695
LeftForeArm  39.4263 -42.4685 -7.639
LeftHand  -0.25398 0.0180481 5.50724
RightShoulder  4.47824 10.5627 25.7464
RightArm  -20.636 45.59 22.8743
RightForeArm  -13.2648 14.8462 6.57613
RightHand  -13.9498 28.9263 -45.003
LeftUpLeg  -16.7615 0.574525 0.914199
LeftLeg  1.17666 2.46102 -2.86364
LeftFoot  8.02637 0.316977 -2.14638
LeftToes  1.06247e-005 4.65855e-005 -8.18501e-006
559
root  -62.5101 40.8664 -28.8387 6.73297 17.8828 3.84407
RightUpLeg  -17.6319 -22.0864 -4.33776
RightLeg  16.4488 -12.5997 1.46338
RightFoot  -2.38622 0.315209 -4.24283
RightToes  0.00048216 0.542163 -0.142577
Spine  30.1545 -1.62664 17.9831
Spine1  18.0392 5.05677 -4.86549
HEad  -14.7791 -2.4215 -9.34239
LeftShoulder1  9.37033 -15.0283 -44.0173
LeftArm  -3.72031 9.92244 -30.5983
LeftForeArm  38.4552 -41.5239 -7.40863
LeftHand  -0.25398 0.0180481 5.50724
RightShoulder  4.62394 10.6514 26.61
RightArm  -15.4549 41.7566 24.6262
RightForeArm  -14.8146 17.0706 6.45559
RightHand  -14.9564 29.9674 -46.6055
LeftUpLeg  -16.3642 1.05938 0.834031
LeftLeg  2.49513 5.08187 -2.86178
LeftFoot  5.68102 0.375548 -2.74298
LeftToes  1.06247e-005 4.65855e-005 -8.18501e-006
560
root  -62.3881 40.927 -28.7818 6.12151 18.5601 3.88664
RightUpLeg  -15.8312 -20.3246 -5.71295
RightLeg  15.477 -15.0151 1.96953
RightFoot  -2.23114 0.266037 -3.52046
RightToes  0.00048216 0.542163 -0.142577
Spine  29.3854 -1.46533 17.8641
Spine1  17.6527 4.97669 -4.78554
HEad  -15.2876 1.73121 -11.4933
LeftShoulder1  9.37735 -14.8846 -44.4141
LeftArm  -3.48754 10.4878 -30.4409
LeftForeArm  38.3197 -40.526 -7.11857
LeftHand  -0.25398 0.0180481 5.50724
RightShoulder  4.77648 10.6143 27.8161
RightArm  -10.6424 36.9686 26.3442
RightForeArm  -16.0686 20.115 5.98254
RightHand  -16.1621 31.171 -48.4355
LeftUpLeg  -15.7751 2.54741 0.737319
LeftLeg  4.07732 7.66344 -2.87269
LeftFoot  3.42582 0.413317 -3.3486
LeftToes  1.06247e-005 4.65855e-005 -8.18501e-006
561
root  -62.235 40.9898 -28.7114 5.66521 19.4474 3.90385
RightUpLeg  -14.1832 -18.2102 -6.93475
RightLeg  14.4238 -17.8696 2.33921
RightFoot  -2.04794 0.225749 -2.94431
RightToes  0.00048216 0.542163 -0.142577
Spine  28.4446 -1.30861 17.8302
Spine1  17.1998 4.93395 -4.85758
HEad  -16.0926 5.62772 -13.3139
LeftShoulder1  9.33381 -14.6851 -44.7062
LeftArm  -3.43321 11.2057 -30.2666
LeftForeArm  37.8706 -39.5916 -6.87435
LeftHand  -0.25398 0.0180481 5.50724
RightShoulder  4.92753 10.5481 29.083
RightArm  -7.99696 31.3266 28.0632
RightForeArm  -15.6261 23.5213 5.80585
RightHand  -17.1956 32.1438 -49.9659
LeftUpLeg  -15.3397 5.03358 0.473868
LeftLeg  5.9804 8.6561 -2.54856
LeftFoot  1.82049 0.421015 -3.74131
LeftToes  1.06247e-005 4.65855e-005 -8.18501e-006
562
root  -62.0431 41.0475 -28.6305 5.40332 20.5587 3.95923
RightUpLeg  -12.7329 -16.4021 -7.9977
RightLeg  13.3789 -20.5507 2.62327
RightFoot  -1.85218 0.165803 -2.14858
RightToes  0.00048216 0.542163 -0.142577
Spine  27.2739 -1.16708 17.8122
Spine1  16.8676 4.88867 -5.02881
HEad  -16.9626 9.04189 -14.9021
LeftShoulder1  9.26127 -14.453 -44.9425
LeftArm  -3.6259 12.0238 -30.1227
LeftForeArm  37.1849 -38.6975 -6.66228
LeftHand  -0.25398 0.0180481 5.50724
RightShoulder  5.05484 10.4798 30.1859
RightArm  -7.69398 25.1806 29.8264
RightForeArm  -13.8847 26.9508 6.48757
RightHand  -17.4803 32.3873 -50.3983
LeftUpLeg  -15.202 7.96188 -0.0165206
LeftLeg  8.17745 7.85003 -1.69404
LeftFoot  0.891071 0.40203 -3.80113
LeftToes  1.06247e-005 4.65855e-005 -8.18501e-006
563
root  -61.8205 41.0954 -28.5516 5.21616 21.906 4.03052
RightUpLeg  -11.3167 -15.202 -8.94467
RightLeg  12.3716 -22.9235 2.85742
RightFoot  -1.70837 0.0606679 -0.856476
RightToes  0.00048216 0.542163 -0.142577
Spine  26.0915 -1.02635 17.7608
Spine1  16.5575 4.82775 -5.15084
HEad  -17.6864 11.7852 -16.2596
LeftShoulder1  9.20178 -14.2291 -45.2293
LeftArm  -3.77533 12.8916 -29.9857
LeftForeArm  36.8728 -37.7334 -6.4148
LeftHand  -0.25398 0.0180481 5.50724
RightShoulder  5.1728 10.3935 31.2727
RightArm  -7.57745 18.8947 31.4885
RightForeArm  -13.4659 30.485 7.36072
RightHand  -16.6251 31.5122 -49.2407
LeftUpLeg  -15.2395 10.542 -0.458107
LeftLeg  10.4114 6.35703 -0.516966
LeftFoot  0.366336 0.380357 -3.73213
LeftToes  1.06247e-005 4.65855e-005 -8.18501e-006
564
root  -61.5772 41.1336 -28.4839 5.1335 23.4278 4.05667
RightUpLeg  -10.0397 -14.5303 -9.66369
RightLeg  11.4136 -24.9842 2.96103
RightFoot  -1.62162 -0.0550834 0.518175
RightToes  0.00048216 0.542163 -0.142577
Spine  25.0185 -0.823909 17.6884
Spine1  16.0715 4.80401 -5.15876
HEad  -18.4081 13.7188 -17.236
LeftShoulder1  9.15422 -14.0154 -45.5565
LeftArm  -3.77844 13.78 -29.8241
LeftForeArm  36.6732 -36.675 -6.1422
LeftHand  -0.25398 0.0180481 5.50724
RightShoulder  5.3328 10.333 32.597
RightArm  -7.94067 12.6328 32.7077
RightForeArm  -13.6951 34.1429 8.37064
RightHand  -14.7454 29.4304 -46.6558
LeftUpLeg  -15.377 12.2801 -0.514073
LeftLeg  12.3049 5.11484 0.502972
LeftFoot  0.185159 0.375313 -3.72993
LeftToes  1.06247e-005 4.65855e-005 -8.18501e-006
565
root  -61.2988 41.1692 -28.4264 5.27588 25.0129 4.12462
RightUpLeg  -9.03278 -14.3957 -10.213
RightLeg  10.4707 -26.4577 2.93862
RightFoot  -1.41215 -0.137555 1.47152
RightToes  0.00048216 0.542163 -0.142577
Spine  23.9907 -0.527793 17.5508
Spine1  15.4671 4.8654 -5.13539
HEad  -19.2135 14.7651 -17.8566
LeftShoulder1  9.1042 -13.7918 -45.9049
LeftArm  -3.76661 14.6506 -29.6547
LeftForeArm  36.0361 -35.5871 -5.89438
LeftHand  -0.25398 0.0180481 5.50724
RightShoulder  5.52548 10.319 34.024
RightArm  -9.19211 6.58641 33.6474
RightForeArm  -13.1745 37.7172 9.41986
RightHand  -12.4245 26.5167 -43.3467
LeftUpLeg  -15.5577 13.4188 -0.243015
LeftLeg  13.4604 4.198 0.934784
LeftFoot  0.368579 0.373011 -3.6603
LeftToes  1.06247e-005 4.65855e-005 -8.18501e-006
